<?xml version="1.0" encoding="utf-8"?>
<!-- Generator: Adobe Illustrator 16.0.0, SVG Export Plug-In . SVG Version: 6.00 Build 0)  -->
<!DOCTYPE svg PUBLIC "-//W3C//DTD SVG 1.1//EN" "http://www.w3.org/Graphics/SVG/1.1/DTD/svg11.dtd">
<svg version="1.1" id="Capa_1" xmlns="http://www.w3.org/2000/svg" xmlns:xlink="http://www.w3.org/1999/xlink" x="0px" y="0px"
	 width="390px" height="60px" viewBox="0 0 390 60" enable-background="new 0 0 390 60" xml:space="preserve">
<g>
	
		<rect x="260.199" y="5.175" transform="matrix(0.6266 -0.7794 0.7794 0.6266 92.7331 208.9775)" fill="#FFFFFF" width="8.474" height="5.092"/>
	<g>
		<path fill="#FFFFFF" d="M10.472,26.125c0,1.628,0.299,3.151,0.9,4.563c0.597,1.416,1.423,2.654,2.483,3.716
			c1.054,1.06,2.289,1.89,3.695,2.493c1.407,0.603,2.923,0.902,4.543,0.902c1.618,0,3.13-0.299,4.54-0.9
			c1.41-0.597,2.639-1.424,3.698-2.479l5.861,5.792c-1.83,1.82-3.95,3.247-6.363,4.278c-2.413,1.031-4.991,1.545-7.736,1.545
			c-2.749,0-5.329-0.52-7.74-1.557c-2.41-1.037-4.517-2.464-6.319-4.276c-1.802-1.816-3.219-3.928-4.249-6.338
			c-1.035-2.41-1.552-4.992-1.552-7.739c0-2.744,0.517-5.324,1.552-7.733c1.03-2.41,2.447-4.524,4.249-6.337
			c1.803-1.815,3.91-3.239,6.319-4.279c2.411-1.039,4.992-1.56,7.74-1.56c2.745,0,5.323,0.526,7.736,1.578
			c2.413,1.048,4.514,2.466,6.309,4.25l-5.807,5.793c-1.059-1.021-2.288-1.84-3.698-2.456c-1.41-0.618-2.922-0.924-4.54-0.924
			c-1.621,0-3.136,0.3-4.543,0.899c-1.406,0.603-2.641,1.437-3.695,2.496c-1.06,1.06-1.886,2.299-2.483,3.713
			C10.771,22.979,10.472,24.501,10.472,26.125z"/>
		<path fill="#FFFFFF" d="M53.144,33.89h-3.906v10.721h-8.239V7.642h16.105c1.797,0,3.494,0.344,5.095,1.031
			c1.604,0.688,2.994,1.622,4.174,2.801c1.181,1.179,2.114,2.569,2.799,4.169c0.686,1.604,1.028,3.302,1.028,5.097
			c0,1.407-0.211,2.748-0.633,4.013c-0.42,1.268-1.003,2.441-1.742,3.514c-0.741,1.074-1.621,2.022-2.641,2.849
			c-1.022,0.828-2.149,1.472-3.379,1.929L70.2,44.611H60.061L53.144,33.89z M49.237,26.125h7.867c0.738,0,1.435-0.139,2.086-0.42
			c0.652-0.28,1.225-0.667,1.718-1.163c0.493-0.494,0.878-1.063,1.16-1.713c0.282-0.654,0.424-1.35,0.424-2.088
			c0-1.374-0.469-2.561-1.402-3.564c-0.933-1.004-2.049-1.593-3.353-1.769h-8.5V26.125z"/>
		<path fill="#FFFFFF" d="M186.278,7.642h8.24v22.34c0,2.218-0.423,4.306-1.271,6.257c-0.841,1.957-1.988,3.656-3.433,5.097
			c-1.442,1.444-3.14,2.589-5.093,3.433c-1.955,0.847-4.042,1.266-6.26,1.266c-2.216,0-4.301-0.418-6.258-1.266
			c-1.953-0.844-3.653-1.989-5.097-3.433c-1.442-1.441-2.585-3.141-3.43-5.097c-0.845-1.951-1.268-4.039-1.268-6.257V7.642h8.237
			v22.34c0,1.094,0.201,2.112,0.608,3.063c0.405,0.95,0.96,1.777,1.664,2.482c0.704,0.704,1.529,1.26,2.483,1.664
			c0.948,0.403,1.971,0.607,3.061,0.607c1.094,0,2.113-0.204,3.065-0.607c0.95-0.404,1.776-0.96,2.479-1.664
			c0.707-0.706,1.26-1.532,1.665-2.482c0.403-0.951,0.607-1.969,0.607-3.063V7.642z"/>
		<path fill="#FFFFFF" d="M209.091,36.373h15.634v8.238h-23.871V7.642h23.871v8.239h-15.634v5.758h13.046v8.238h-13.046V36.373z"/>
		<path fill="#FFFFFF" d="M245.48,15.881v28.73h-8.239v-28.73h-7.765V7.642h23.873v8.239H245.48z"/>
		<path fill="#FFFFFF" d="M274.154,7.642h25.398l-14.945,28.731h12.941v8.238h-26.457l14.731-28.73h-11.669V7.642z"/>
		<path fill="#FFFFFF" d="M320.205,6.216l17.902,38.395h-9.137l-2.22-5.491h-13.093l-2.218,5.491h-9.139L320.205,6.216z
			 M316.981,30.88h6.393l-3.169-7.974L316.981,30.88z"/>
		<path fill="#FFFFFF" d="M350.94,15.881v28.73h-8.239v-28.73h-7.762V7.642h23.87v8.239H350.94z"/>
		<path fill="#FFFFFF" d="M371.8,36.373h15.635v8.238H363.56V7.642h23.875v8.239H371.8v5.758h13.043v8.238H371.8V36.373z"/>
		<path fill="#FFFFFF" d="M104.554,42.536c9.062-6.227,11.361-18.622,5.135-27.684C103.46,5.79,91.067,3.491,82.005,9.717
			c-9.063,6.228-11.361,18.622-5.135,27.687C83.097,46.466,95.488,48.762,104.554,42.536z M103.829,33.171
			c-1.049,0.869-2.738,0.723-3.808,1.351c-1.797,1.062-2.917,3.598-4.949,4.505c-4.686,2.103-4.868-5.67-4.164-8.812
			c0.234-1.051,0.795-2.492,1.646-3.344c1.891-1.886,4.785-1.308,7.104-0.461C102.284,27.376,107.257,30.326,103.829,33.171z
			 M98.502,18.528c1.273-1.316,2.877-1.074,4.005,0.09c2.166,2.228,2.082,5.974,0.064,7.211c-1.173,0.719-2.622,0.386-3.397-0.35
			C96.896,23.323,97.073,20.005,98.502,18.528z M90.256,14.564c1.533-1.673,3.539-0.832,4.922,1.198
			c1.726,2.524,1.786,7.906-1.991,7.207C89.696,22.319,88.632,16.345,90.256,14.564z M83.213,18.78
			c2.957-2.809,9.942,4.446,6.838,6.972C87.084,28.168,79.875,21.943,83.213,18.78z M81.777,28.243
			c0.12-0.227,0.3-0.484,0.525-0.676c2.154-1.838,5.838-0.333,7.307,2.591c0.372,0.742,0.58,1.997-0.034,2.708
			C86.993,35.841,80.137,31.513,81.777,28.243z"/>
		<path fill="#FFFFFF" d="M154.034,36.754c0.952-1.548,1.688-3.223,2.207-5.018c0.521-1.797,0.783-3.667,0.783-5.611
			c0-2.838-0.529-5.499-1.588-7.981c-1.06-2.479-2.503-4.637-4.337-6.474c-1.83-1.833-3.982-3.282-6.458-4.34
			c-2.482-1.061-5.138-1.594-7.973-1.594c-2.8,0-5.428,0.533-7.89,1.594c-2.457,1.058-4.603,2.505-6.433,4.338
			c-1.83,1.833-3.278,3.991-4.336,6.471c-1.058,2.479-1.587,5.139-1.587,7.981c0,2.802,0.529,5.434,1.587,7.897
			s2.506,4.61,4.336,6.441c1.83,1.835,3.976,3.087,6.433,4.145c2.461,1.06,5.089,1.396,7.89,1.396h2.749l9.887,8.148l5.311-6.504
			l-6.233-4.966c0.796-0.554,1.552-1.136,2.261-1.796C151.953,39.66,153.083,38.301,154.034,36.754z M147.693,30.779
			c-0.612,1.442-1.459,3.167-2.538,4.233c-1.085,1.064-2.353-0.012-3.812,2.988h-0.009l-0.082-0.535l-0.119-0.089
			c-1.4,0.561-2.887,0.724-4.466,0.724c-1.623,0-3.152-0.365-4.591-0.979c-1.442-0.615-2.693-1.484-3.757-2.547
			c-1.063-1.066-1.91-2.337-2.541-3.779c-0.63-1.444-0.945-3.006-0.945-4.666c0-1.663,0.314-3.216,0.945-4.662
			c0.631-1.444,1.478-2.711,2.541-3.793c1.064-1.085,2.315-1.945,3.757-2.574c1.438-0.636,2.968-0.951,4.591-0.951
			c1.661,0,3.216,0.315,4.675,0.949c1.459,0.632,2.727,1.49,3.812,2.573c1.078,1.082,1.925,2.347,2.538,3.792s0.92,2.994,0.92,4.659
			C148.613,27.779,148.306,29.334,147.693,30.779z"/>
		<rect x="259.937" y="16.127" fill="#FFFFFF" width="8.413" height="28.486"/>
	</g>
</g>
</svg>
